<mxfile host="app.diagrams.net" agent="Mozilla/5.0 (Windows NT 10.0; Win64; x64) AppleWebKit/537.36 (KHTML, like Gecko) Chrome/127.0.0.0 Safari/537.36" version="24.7.8">
  <diagram name="第 1 页" id="XJoSBAoA7ExluzeK5JhE">
    <mxGraphModel dx="863" dy="381" grid="1" gridSize="10" guides="1" tooltips="1" connect="1" arrows="1" fold="1" page="1" pageScale="1" pageWidth="827" pageHeight="1169" math="0" shadow="0">
      <root>
        <mxCell id="0" />
        <mxCell id="1" parent="0" />
        <mxCell id="cEBeiyXx00uCXnlwp7B7-1" value="" style="ellipse;whiteSpace=wrap;html=1;aspect=fixed;" vertex="1" parent="1">
          <mxGeometry x="140" y="275" width="20" height="20" as="geometry" />
        </mxCell>
        <mxCell id="cEBeiyXx00uCXnlwp7B7-2" value="" style="endArrow=classic;html=1;rounded=0;exitX=1;exitY=0.5;exitDx=0;exitDy=0;" edge="1" parent="1" source="cEBeiyXx00uCXnlwp7B7-1">
          <mxGeometry width="50" height="50" relative="1" as="geometry">
            <mxPoint x="390" y="270" as="sourcePoint" />
            <mxPoint x="290" y="285" as="targetPoint" />
          </mxGeometry>
        </mxCell>
        <mxCell id="cEBeiyXx00uCXnlwp7B7-3" value="ProcessCreate" style="edgeLabel;html=1;align=center;verticalAlign=middle;resizable=0;points=[];" vertex="1" connectable="0" parent="cEBeiyXx00uCXnlwp7B7-2">
          <mxGeometry x="-0.16" y="3" relative="1" as="geometry">
            <mxPoint x="9" y="-7" as="offset" />
          </mxGeometry>
        </mxCell>
        <mxCell id="cEBeiyXx00uCXnlwp7B7-4" value="" style="ellipse;whiteSpace=wrap;html=1;aspect=fixed;fillColor=#f8cecc;strokeColor=#b85450;" vertex="1" parent="1">
          <mxGeometry x="290" y="275" width="20" height="20" as="geometry" />
        </mxCell>
        <mxCell id="cEBeiyXx00uCXnlwp7B7-5" value="" style="endArrow=classic;html=1;rounded=0;entryX=0;entryY=0.5;entryDx=0;entryDy=0;" edge="1" parent="1" target="cEBeiyXx00uCXnlwp7B7-9">
          <mxGeometry width="50" height="50" relative="1" as="geometry">
            <mxPoint x="400" y="290" as="sourcePoint" />
            <mxPoint x="448" y="440" as="targetPoint" />
            <Array as="points">
              <mxPoint x="400" y="350" />
            </Array>
          </mxGeometry>
        </mxCell>
        <mxCell id="cEBeiyXx00uCXnlwp7B7-6" value="ProcessCreate" style="edgeLabel;html=1;align=center;verticalAlign=middle;resizable=0;points=[];" vertex="1" connectable="0" parent="cEBeiyXx00uCXnlwp7B7-5">
          <mxGeometry x="-0.16" y="3" relative="1" as="geometry">
            <mxPoint x="39" y="-6" as="offset" />
          </mxGeometry>
        </mxCell>
        <mxCell id="cEBeiyXx00uCXnlwp7B7-7" value="explorer.exe" style="text;strokeColor=none;align=center;fillColor=none;html=1;verticalAlign=middle;whiteSpace=wrap;rounded=0;" vertex="1" parent="1">
          <mxGeometry x="120" y="290" width="60" height="30" as="geometry" />
        </mxCell>
        <mxCell id="cEBeiyXx00uCXnlwp7B7-8" value="meitu.exe" style="text;strokeColor=none;align=center;fillColor=none;html=1;verticalAlign=middle;whiteSpace=wrap;rounded=0;" vertex="1" parent="1">
          <mxGeometry x="270" y="290" width="60" height="30" as="geometry" />
        </mxCell>
        <mxCell id="cEBeiyXx00uCXnlwp7B7-9" value="" style="ellipse;whiteSpace=wrap;html=1;aspect=fixed;fillColor=#f8cecc;strokeColor=#b85450;" vertex="1" parent="1">
          <mxGeometry x="500" y="340" width="20" height="20" as="geometry" />
        </mxCell>
        <mxCell id="cEBeiyXx00uCXnlwp7B7-12" value="window.exe" style="text;strokeColor=none;align=center;fillColor=none;html=1;verticalAlign=middle;whiteSpace=wrap;rounded=0;" vertex="1" parent="1">
          <mxGeometry x="480" y="355" width="60" height="30" as="geometry" />
        </mxCell>
        <mxCell id="cEBeiyXx00uCXnlwp7B7-19" value="" style="endArrow=classic;html=1;rounded=0;exitX=1;exitY=0.5;exitDx=0;exitDy=0;entryX=0.5;entryY=1;entryDx=0;entryDy=0;" edge="1" parent="1" target="cEBeiyXx00uCXnlwp7B7-21">
          <mxGeometry width="50" height="50" relative="1" as="geometry">
            <mxPoint x="150" y="274.17" as="sourcePoint" />
            <mxPoint x="150" y="190" as="targetPoint" />
          </mxGeometry>
        </mxCell>
        <mxCell id="cEBeiyXx00uCXnlwp7B7-20" value="ProcessCreate" style="edgeLabel;html=1;align=center;verticalAlign=middle;resizable=0;points=[];" vertex="1" connectable="0" parent="cEBeiyXx00uCXnlwp7B7-19">
          <mxGeometry x="-0.16" y="3" relative="1" as="geometry">
            <mxPoint x="3" y="-7" as="offset" />
          </mxGeometry>
        </mxCell>
        <mxCell id="cEBeiyXx00uCXnlwp7B7-21" value="" style="ellipse;whiteSpace=wrap;html=1;aspect=fixed;" vertex="1" parent="1">
          <mxGeometry x="140" y="168" width="20" height="20" as="geometry" />
        </mxCell>
        <mxCell id="cEBeiyXx00uCXnlwp7B7-22" value="CMClient.exe" style="text;strokeColor=none;align=center;fillColor=none;html=1;verticalAlign=middle;whiteSpace=wrap;rounded=0;" vertex="1" parent="1">
          <mxGeometry x="123" y="145" width="60" height="30" as="geometry" />
        </mxCell>
        <mxCell id="cEBeiyXx00uCXnlwp7B7-23" value="" style="endArrow=classic;html=1;rounded=0;exitX=1;exitY=0.5;exitDx=0;exitDy=0;edgeStyle=elbowEdgeStyle;dashed=1;entryX=0;entryY=0.5;entryDx=0;entryDy=0;" edge="1" parent="1" target="cEBeiyXx00uCXnlwp7B7-25">
          <mxGeometry width="50" height="50" relative="1" as="geometry">
            <mxPoint x="160" y="179.57999999999998" as="sourcePoint" />
            <mxPoint x="210" y="120" as="targetPoint" />
            <Array as="points">
              <mxPoint x="180" y="180" />
            </Array>
          </mxGeometry>
        </mxCell>
        <mxCell id="cEBeiyXx00uCXnlwp7B7-24" value="FileCreate" style="edgeLabel;html=1;align=center;verticalAlign=middle;resizable=0;points=[];" vertex="1" connectable="0" parent="cEBeiyXx00uCXnlwp7B7-23">
          <mxGeometry x="-0.16" y="3" relative="1" as="geometry">
            <mxPoint x="6" y="-7" as="offset" />
          </mxGeometry>
        </mxCell>
        <mxCell id="cEBeiyXx00uCXnlwp7B7-25" value="" style="shape=document;whiteSpace=wrap;html=1;boundedLbl=1;" vertex="1" parent="1">
          <mxGeometry x="286" y="169" width="30" height="20" as="geometry" />
        </mxCell>
        <mxCell id="cEBeiyXx00uCXnlwp7B7-26" value=".zip" style="text;strokeColor=none;align=center;fillColor=none;html=1;verticalAlign=middle;whiteSpace=wrap;rounded=0;" vertex="1" parent="1">
          <mxGeometry x="298" y="158" width="60" height="30" as="geometry" />
        </mxCell>
        <mxCell id="cEBeiyXx00uCXnlwp7B7-27" value="" style="endArrow=classic;html=1;rounded=0;exitX=0.5;exitY=1;exitDx=0;exitDy=0;edgeStyle=elbowEdgeStyle;dashed=1;entryX=0.5;entryY=0;entryDx=0;entryDy=0;" edge="1" parent="1" source="cEBeiyXx00uCXnlwp7B7-29" target="cEBeiyXx00uCXnlwp7B7-4">
          <mxGeometry width="50" height="50" relative="1" as="geometry">
            <mxPoint x="234.33999999999992" y="192.65999999999997" as="sourcePoint" />
            <mxPoint x="234" y="271" as="targetPoint" />
            <Array as="points">
              <mxPoint x="300" y="210" />
            </Array>
          </mxGeometry>
        </mxCell>
        <mxCell id="cEBeiyXx00uCXnlwp7B7-28" value="FileCreate" style="edgeLabel;html=1;align=center;verticalAlign=middle;resizable=0;points=[];" vertex="1" connectable="0" parent="cEBeiyXx00uCXnlwp7B7-27">
          <mxGeometry x="-0.16" y="3" relative="1" as="geometry">
            <mxPoint x="-3" y="3" as="offset" />
          </mxGeometry>
        </mxCell>
        <mxCell id="cEBeiyXx00uCXnlwp7B7-29" value="" style="ellipse;whiteSpace=wrap;html=1;aspect=fixed;fillColor=#f8cecc;strokeColor=#b85450;" vertex="1" parent="1">
          <mxGeometry x="288" y="121" width="24" height="24" as="geometry" />
        </mxCell>
        <mxCell id="cEBeiyXx00uCXnlwp7B7-30" value="winrar.exe" style="text;strokeColor=none;align=center;fillColor=none;html=1;verticalAlign=middle;whiteSpace=wrap;rounded=0;" vertex="1" parent="1">
          <mxGeometry x="271" y="98" width="60" height="30" as="geometry" />
        </mxCell>
        <mxCell id="cEBeiyXx00uCXnlwp7B7-33" value="" style="endArrow=classic;html=1;rounded=0;" edge="1" parent="1">
          <mxGeometry width="50" height="50" relative="1" as="geometry">
            <mxPoint x="400" y="350" as="sourcePoint" />
            <mxPoint x="500" y="410" as="targetPoint" />
            <Array as="points">
              <mxPoint x="400" y="410" />
            </Array>
          </mxGeometry>
        </mxCell>
        <mxCell id="cEBeiyXx00uCXnlwp7B7-34" value="ProcessCreate" style="edgeLabel;html=1;align=center;verticalAlign=middle;resizable=0;points=[];" vertex="1" connectable="0" parent="cEBeiyXx00uCXnlwp7B7-33">
          <mxGeometry x="-0.16" y="3" relative="1" as="geometry">
            <mxPoint x="38" y="-5" as="offset" />
          </mxGeometry>
        </mxCell>
        <mxCell id="cEBeiyXx00uCXnlwp7B7-48" value="" style="endArrow=classic;html=1;rounded=0;exitX=1;exitY=0.5;exitDx=0;exitDy=0;" edge="1" parent="1" source="cEBeiyXx00uCXnlwp7B7-4">
          <mxGeometry width="50" height="50" relative="1" as="geometry">
            <mxPoint x="430" y="330" as="sourcePoint" />
            <mxPoint x="500" y="150" as="targetPoint" />
            <Array as="points">
              <mxPoint x="400" y="285" />
              <mxPoint x="400" y="150" />
            </Array>
          </mxGeometry>
        </mxCell>
        <mxCell id="cEBeiyXx00uCXnlwp7B7-50" value="NetWorkConnect" style="edgeLabel;html=1;align=center;verticalAlign=middle;resizable=0;points=[];" vertex="1" connectable="0" parent="cEBeiyXx00uCXnlwp7B7-48">
          <mxGeometry x="0.0831" y="3" relative="1" as="geometry">
            <mxPoint x="48" y="-59" as="offset" />
          </mxGeometry>
        </mxCell>
        <mxCell id="cEBeiyXx00uCXnlwp7B7-49" value="" style="ellipse;shape=cloud;whiteSpace=wrap;html=1;" vertex="1" parent="1">
          <mxGeometry x="497" y="136" width="43" height="22" as="geometry" />
        </mxCell>
        <mxCell id="cEBeiyXx00uCXnlwp7B7-53" value="" style="endArrow=classic;html=1;rounded=0;" edge="1" parent="1">
          <mxGeometry width="50" height="50" relative="1" as="geometry">
            <mxPoint x="400" y="190" as="sourcePoint" />
            <mxPoint x="500" y="190" as="targetPoint" />
          </mxGeometry>
        </mxCell>
        <mxCell id="cEBeiyXx00uCXnlwp7B7-57" value="ReflectiveInject" style="edgeLabel;html=1;align=center;verticalAlign=middle;resizable=0;points=[];" vertex="1" connectable="0" parent="cEBeiyXx00uCXnlwp7B7-53">
          <mxGeometry x="0.152" y="-2" relative="1" as="geometry">
            <mxPoint x="-10" y="-10" as="offset" />
          </mxGeometry>
        </mxCell>
        <mxCell id="cEBeiyXx00uCXnlwp7B7-55" value="" style="shape=document;whiteSpace=wrap;html=1;boundedLbl=1;" vertex="1" parent="1">
          <mxGeometry x="501" y="181" width="30" height="20" as="geometry" />
        </mxCell>
        <mxCell id="cEBeiyXx00uCXnlwp7B7-56" value=".jpg" style="text;strokeColor=none;align=center;fillColor=none;html=1;verticalAlign=middle;whiteSpace=wrap;rounded=0;" vertex="1" parent="1">
          <mxGeometry x="487" y="191" width="60" height="30" as="geometry" />
        </mxCell>
        <mxCell id="cEBeiyXx00uCXnlwp7B7-58" value="" style="endArrow=classic;html=1;rounded=0;" edge="1" parent="1">
          <mxGeometry width="50" height="50" relative="1" as="geometry">
            <mxPoint x="400" y="228" as="sourcePoint" />
            <mxPoint x="500" y="228" as="targetPoint" />
          </mxGeometry>
        </mxCell>
        <mxCell id="cEBeiyXx00uCXnlwp7B7-59" value="ProcessCreate" style="edgeLabel;html=1;align=center;verticalAlign=middle;resizable=0;points=[];" vertex="1" connectable="0" parent="cEBeiyXx00uCXnlwp7B7-58">
          <mxGeometry x="0.152" y="-2" relative="1" as="geometry">
            <mxPoint x="-10" y="-10" as="offset" />
          </mxGeometry>
        </mxCell>
        <mxCell id="cEBeiyXx00uCXnlwp7B7-61" value="config.exe" style="text;strokeColor=none;align=center;fillColor=none;html=1;verticalAlign=middle;whiteSpace=wrap;rounded=0;" vertex="1" parent="1">
          <mxGeometry x="484" y="228" width="60" height="30" as="geometry" />
        </mxCell>
        <mxCell id="cEBeiyXx00uCXnlwp7B7-62" value="" style="ellipse;whiteSpace=wrap;html=1;aspect=fixed;fillColor=#f8cecc;strokeColor=#b85450;" vertex="1" parent="1">
          <mxGeometry x="500" y="217" width="20" height="20" as="geometry" />
        </mxCell>
        <mxCell id="cEBeiyXx00uCXnlwp7B7-64" value="" style="endArrow=classic;html=1;rounded=0;" edge="1" parent="1">
          <mxGeometry width="50" height="50" relative="1" as="geometry">
            <mxPoint x="520" y="228" as="sourcePoint" />
            <mxPoint x="620" y="228" as="targetPoint" />
          </mxGeometry>
        </mxCell>
        <mxCell id="cEBeiyXx00uCXnlwp7B7-65" value="registryOperate" style="edgeLabel;html=1;align=center;verticalAlign=middle;resizable=0;points=[];" vertex="1" connectable="0" parent="cEBeiyXx00uCXnlwp7B7-64">
          <mxGeometry x="0.152" y="-2" relative="1" as="geometry">
            <mxPoint x="-10" y="-10" as="offset" />
          </mxGeometry>
        </mxCell>
        <mxCell id="cEBeiyXx00uCXnlwp7B7-66" value="RegClassification:1&lt;br&gt;开机启动项" style="text;strokeColor=none;align=center;fillColor=none;html=1;verticalAlign=middle;whiteSpace=wrap;rounded=0;" vertex="1" parent="1">
          <mxGeometry x="652" y="207" width="76" height="30" as="geometry" />
        </mxCell>
        <mxCell id="cEBeiyXx00uCXnlwp7B7-68" value="" style="shape=process;whiteSpace=wrap;html=1;backgroundOutline=1;" vertex="1" parent="1">
          <mxGeometry x="620" y="223" width="20" height="10" as="geometry" />
        </mxCell>
        <mxCell id="cEBeiyXx00uCXnlwp7B7-69" value="" style="endArrow=classic;html=1;rounded=0;exitX=0.611;exitY=0.035;exitDx=0;exitDy=0;exitPerimeter=0;dashed=1;" edge="1" parent="1" source="cEBeiyXx00uCXnlwp7B7-61">
          <mxGeometry width="50" height="50" relative="1" as="geometry">
            <mxPoint x="520" y="289" as="sourcePoint" />
            <mxPoint x="620" y="289" as="targetPoint" />
          </mxGeometry>
        </mxCell>
        <mxCell id="cEBeiyXx00uCXnlwp7B7-70" value="AutoStart" style="edgeLabel;html=1;align=center;verticalAlign=middle;resizable=0;points=[];" vertex="1" connectable="0" parent="cEBeiyXx00uCXnlwp7B7-69">
          <mxGeometry x="0.152" y="-2" relative="1" as="geometry">
            <mxPoint x="1" y="-2" as="offset" />
          </mxGeometry>
        </mxCell>
        <mxCell id="cEBeiyXx00uCXnlwp7B7-71" value="CCMini.exe" style="text;strokeColor=none;align=center;fillColor=none;html=1;verticalAlign=middle;whiteSpace=wrap;rounded=0;" vertex="1" parent="1">
          <mxGeometry x="597" y="296" width="76" height="30" as="geometry" />
        </mxCell>
        <mxCell id="cEBeiyXx00uCXnlwp7B7-73" value="" style="ellipse;whiteSpace=wrap;html=1;aspect=fixed;fillColor=#f8cecc;strokeColor=#b85450;" vertex="1" parent="1">
          <mxGeometry x="620" y="276" width="20" height="20" as="geometry" />
        </mxCell>
        <mxCell id="cEBeiyXx00uCXnlwp7B7-75" value="" style="endArrow=classic;html=1;rounded=0;" edge="1" parent="1">
          <mxGeometry width="50" height="50" relative="1" as="geometry">
            <mxPoint x="520" y="351" as="sourcePoint" />
            <mxPoint x="620" y="351" as="targetPoint" />
          </mxGeometry>
        </mxCell>
        <mxCell id="cEBeiyXx00uCXnlwp7B7-76" value="ReflectiveInject" style="edgeLabel;html=1;align=center;verticalAlign=middle;resizable=0;points=[];" vertex="1" connectable="0" parent="cEBeiyXx00uCXnlwp7B7-75">
          <mxGeometry x="0.152" y="-2" relative="1" as="geometry">
            <mxPoint x="-10" y="-10" as="offset" />
          </mxGeometry>
        </mxCell>
        <mxCell id="cEBeiyXx00uCXnlwp7B7-77" value="" style="shape=document;whiteSpace=wrap;html=1;boundedLbl=1;" vertex="1" parent="1">
          <mxGeometry x="621" y="342" width="30" height="20" as="geometry" />
        </mxCell>
        <mxCell id="cEBeiyXx00uCXnlwp7B7-78" value=".jpg" style="text;strokeColor=none;align=center;fillColor=none;html=1;verticalAlign=middle;whiteSpace=wrap;rounded=0;" vertex="1" parent="1">
          <mxGeometry x="606" y="354" width="60" height="30" as="geometry" />
        </mxCell>
        <mxCell id="cEBeiyXx00uCXnlwp7B7-79" value="" style="ellipse;whiteSpace=wrap;html=1;aspect=fixed;fillColor=#f8cecc;strokeColor=#b85450;" vertex="1" parent="1">
          <mxGeometry x="501" y="400" width="20" height="20" as="geometry" />
        </mxCell>
        <mxCell id="cEBeiyXx00uCXnlwp7B7-80" value="window.exe" style="text;strokeColor=none;align=center;fillColor=none;html=1;verticalAlign=middle;whiteSpace=wrap;rounded=0;" vertex="1" parent="1">
          <mxGeometry x="481" y="415" width="60" height="30" as="geometry" />
        </mxCell>
        <mxCell id="cEBeiyXx00uCXnlwp7B7-81" value="" style="endArrow=classic;html=1;rounded=0;" edge="1" parent="1">
          <mxGeometry width="50" height="50" relative="1" as="geometry">
            <mxPoint x="521" y="411" as="sourcePoint" />
            <mxPoint x="621" y="411" as="targetPoint" />
          </mxGeometry>
        </mxCell>
        <mxCell id="cEBeiyXx00uCXnlwp7B7-82" value="ReflectiveInject" style="edgeLabel;html=1;align=center;verticalAlign=middle;resizable=0;points=[];" vertex="1" connectable="0" parent="cEBeiyXx00uCXnlwp7B7-81">
          <mxGeometry x="0.152" y="-2" relative="1" as="geometry">
            <mxPoint x="-10" y="-10" as="offset" />
          </mxGeometry>
        </mxCell>
        <mxCell id="cEBeiyXx00uCXnlwp7B7-83" value="" style="shape=document;whiteSpace=wrap;html=1;boundedLbl=1;" vertex="1" parent="1">
          <mxGeometry x="622" y="402" width="30" height="20" as="geometry" />
        </mxCell>
        <mxCell id="cEBeiyXx00uCXnlwp7B7-84" value=".jpg" style="text;strokeColor=none;align=center;fillColor=none;html=1;verticalAlign=middle;whiteSpace=wrap;rounded=0;" vertex="1" parent="1">
          <mxGeometry x="607" y="414" width="60" height="30" as="geometry" />
        </mxCell>
        <mxCell id="cEBeiyXx00uCXnlwp7B7-85" value="" style="endArrow=classic;html=1;rounded=0;" edge="1" parent="1">
          <mxGeometry width="50" height="50" relative="1" as="geometry">
            <mxPoint x="640" y="286.43" as="sourcePoint" />
            <mxPoint x="740" y="286.43" as="targetPoint" />
          </mxGeometry>
        </mxCell>
        <mxCell id="cEBeiyXx00uCXnlwp7B7-86" value="ImageLoad" style="edgeLabel;html=1;align=center;verticalAlign=middle;resizable=0;points=[];" vertex="1" connectable="0" parent="cEBeiyXx00uCXnlwp7B7-85">
          <mxGeometry x="0.152" y="-2" relative="1" as="geometry">
            <mxPoint x="-10" y="-10" as="offset" />
          </mxGeometry>
        </mxCell>
        <mxCell id="cEBeiyXx00uCXnlwp7B7-88" value="AudioEngine.dll" style="text;strokeColor=none;align=center;fillColor=none;html=1;verticalAlign=middle;whiteSpace=wrap;rounded=0;" vertex="1" parent="1">
          <mxGeometry x="718" y="295" width="76" height="30" as="geometry" />
        </mxCell>
        <mxCell id="cEBeiyXx00uCXnlwp7B7-89" value="" style="ellipse;whiteSpace=wrap;html=1;aspect=fixed;" vertex="1" parent="1">
          <mxGeometry x="741" y="275" width="20" height="20" as="geometry" />
        </mxCell>
      </root>
    </mxGraphModel>
  </diagram>
</mxfile>
